<?xml version="1.0" encoding="UTF-8" standalone="no" ?>
<!DOCTYPE svg PUBLIC "-//W3C//DTD SVG 1.1//EN" "http://www.w3.org/Graphics/SVG/1.1/DTD/svg11.dtd">
<svg xmlns="http://www.w3.org/2000/svg" xmlns:xlink="http://www.w3.org/1999/xlink" version="1.1" width="1080" height="1080" viewBox="0 0 1080 1080" xml:space="preserve">
<desc>Created with Fabric.js 5.2.4</desc>
<defs>
</defs>
<g transform="matrix(1 0 0 1 540 540)" id="1c285c48-8976-426d-82f9-ac34fba45da0"  >
<rect style="stroke: none; stroke-width: 1; stroke-dasharray: none; stroke-linecap: butt; stroke-dashoffset: 0; stroke-linejoin: miter; stroke-miterlimit: 4; fill: rgb(255,255,255); fill-rule: nonzero; opacity: 1; visibility: hidden;" vector-effect="non-scaling-stroke"  x="-540" y="-540" rx="0" ry="0" width="1080" height="1080" />
</g>
<g transform="matrix(1 0 0 1 540 540)" id="3379eaa0-cb16-4ffb-b208-75955e2dd1bf"  >
</g>
<g transform="matrix(1 0 0 1 540 540)"  >
<g style="" vector-effect="non-scaling-stroke"   >
		<g transform="matrix(16.67 0 0 16.67 0 200.72)"  >
<path style="stroke: none; stroke-width: 1; stroke-dasharray: none; stroke-linecap: butt; stroke-dashoffset: 0; stroke-linejoin: miter; stroke-miterlimit: 4; fill: rgb(0,0,0); fill-rule: evenodd; opacity: 1;" vector-effect="non-scaling-stroke"  transform=" translate(-24, -36.5)" d="M 18.1254 29.6236 C 17.8971 29.1592 17.3814 28.9083 16.8786 29.0309 C 11.4745 30.3492 6 33.0372 6 37.0809 L 6 44 L 16 44 L 16 34 C 16 33.4477 16.4477 33 17 33 C 17.5523 33 18 33.4477 18 34 L 18 44 L 30 44 L 30 34 C 30 33.4477 30.4477 33 31 33 C 31.5523 33 32 33.4477 32 34 L 32 44 L 42 44 L 42 37.0809 C 42 33.0372 36.5255 30.3492 31.1214 29.0309 C 30.6186 28.9083 30.1029 29.1592 29.8746 29.6236 L 25.8105 29.8958 L 22.1893 29.8955 L 18.1254 29.6236 Z" stroke-linecap="round" />
</g>
		<g transform="matrix(16.67 0 0 16.67 0 -207.09)"  >
<path style="stroke: none; stroke-width: 1; stroke-dasharray: none; stroke-linecap: butt; stroke-dashoffset: 0; stroke-linejoin: miter; stroke-miterlimit: 4; fill: rgb(0,0,0); fill-rule: evenodd; opacity: 1;" vector-effect="non-scaling-stroke"  transform=" translate(-24, -12.03)" d="M 25 4.91406 C 26.0674 5.05142 27.0785 5.40145 28 5.8952 L 28 8.99958 C 28 9.55187 28.4477 9.99958 29 9.99958 C 29.5523 9.99958 30 9.55187 30 8.99958 L 30 7.30074 C 31.2334 8.4022 32.1606 9.73931 32.6383 11.0162 C 32.6565 11.4852 32.6057 11.9698 32.5138 12.4412 C 32.3972 13.0396 32.2213 13.5777 32.0735 13.9675 C 31.9999 14.1617 31.934 14.3173 31.8871 14.423 C 31.8636 14.4758 31.845 14.5161 31.8326 14.5424 L 31.8189 14.5712 L 31.8154 14.5783 C 31.6807 14.8503 31.7918 15.18 32.0637 15.315 C 32.3358 15.4501 32.6658 15.339 32.8009 15.0669 L 32.3158 14.8261 C 32.8009 15.0669 32.8012 15.0663 32.8013 15.0662 L 32.8019 15.065 L 32.8035 15.0616 L 32.8089 15.0505 L 32.8276 15.0113 C 32.8434 14.9779 32.8655 14.93 32.8926 14.8691 C 32.9466 14.7473 33.0204 14.5729 33.1021 14.3575 C 33.2649 13.928 33.4617 13.3281 33.5935 12.6516 C 33.6163 12.5346 33.6374 12.414 33.6561 12.2904 C 34.5129 13.4107 35 14.5716 35 15.5747 C 35 18.7641 30.0751 19.1497 24 19.1497 C 17.9249 19.1497 13 18.7641 13 15.5747 C 13 14.6346 13.4278 13.556 14.1868 12.502 C 14.1542 13.3989 14.333 14.3435 14.9369 15.1757 C 15.1172 15.4241 15.4608 15.4827 15.7044 15.3067 C 15.9481 15.1306 15.9994 14.7865 15.8191 14.5381 C 15.1018 13.5497 15.1944 12.2339 15.5559 11.0415 C 15.7318 10.461 15.9606 9.94772 16.1466 9.57826 C 16.2393 9.39423 16.3204 9.24764 16.3776 9.14826 C 16.4062 9.09861 16.4288 9.06086 16.4437 9.03624 L 16.4603 9.00933 L 16.4644 9.00269 C 16.4691 8.99535 16.4735 8.98793 16.4778 8.98044 C 16.9075 8.38893 17.4199 7.81877 18 7.30073 L 18 8.99958 C 18 9.55187 18.4477 9.99958 19 9.99958 C 19.5523 9.99958 20 9.55187 20 8.99958 L 20 5.89519 C 20.9215 5.40145 21.9326 5.05142 23 4.91406 L 23 6.99958 C 23 7.55187 23.4477 7.99958 24 7.99958 C 24.5523 7.99958 25 7.55187 25 6.99958 L 25 4.91406 Z" stroke-linecap="round" />
</g>
		<g transform="matrix(16.67 0 0 16.67 0 -32.62)"  >
<path style="stroke: none; stroke-width: 1; stroke-dasharray: none; stroke-linecap: butt; stroke-dashoffset: 0; stroke-linejoin: miter; stroke-miterlimit: 4; fill: rgb(0,0,0); fill-rule: evenodd; opacity: 1;" vector-effect="non-scaling-stroke"  transform=" translate(-24, -22.5)" d="M 17 18 C 17 21.866 20.134 25 24 25 C 27.866 25 31 21.866 31 18 L 33 18 C 33 22.9706 28.9706 27 24 27 C 19.0294 27 15 22.9706 15 18 L 17 18 Z" stroke-linecap="round" />
</g>
</g>
</g>
<g transform="matrix(0.44 0 0 0.44 827.5 463.31)"  >
<g style="" vector-effect="non-scaling-stroke"   >
		<g transform="matrix(1.56 0 0 1.56 -147.59 210.1)"  >
<path style="stroke: none; stroke-width: 1; stroke-dasharray: none; stroke-linecap: butt; stroke-dashoffset: 0; stroke-linejoin: miter; stroke-miterlimit: 4; fill: rgb(0,0,0); fill-rule: nonzero; opacity: 1;" vector-effect="non-scaling-stroke"  transform=" translate(-161.54, -390.46)" d="M 50.448 345.976 C 36.533 359.892 36.533 382.46 50.448 396.376 L 155.63 501.548 C 169.54399999999998 515.48 192.114 515.48 206.03 501.565 L 283.075 424.51099999999997 L 127.494 268.93 L 50.448 345.976 z M 178.932 464.636 C 175.81099999999998 467.75600000000003 170.72299999999998 467.773 167.60199999999998 464.644 L 87.36199999999998 384.404 C 84.23299999999998 381.284 84.24199999999998 376.194 87.36199999999998 373.066 L 120.86599999999999 339.57 L 212.43599999999998 431.132 L 178.932 464.636 z" stroke-linecap="round" />
</g>
		<g transform="matrix(1.56 0 0 1.56 79.34 -96.24)"  >
<polygon style="stroke: none; stroke-width: 1; stroke-dasharray: none; stroke-linecap: butt; stroke-dashoffset: 0; stroke-linejoin: miter; stroke-miterlimit: 4; fill: rgb(0,0,0); fill-rule: nonzero; opacity: 1;" vector-effect="non-scaling-stroke"  points="131.19,-108.91 165.21,-118.83 89.64,-194.4 -165.21,60.45 -31.26,194.4 2.42,183.96 -12.16,154.44 26.33,140.05 11.74,110.52 50.22,96.15 35.62,66.64 74.11,52.26 59.51,22.76 98,8.38 83.4,-21.14 121.88,-35.51 107.3,-65.02 145.77,-79.4 " />
</g>
</g>
</g>
</svg>