<?xml version="1.0" encoding="UTF-8" standalone="no"?>
<svg
   width="2461"
   height="2500"
   viewBox="0 0 106.328 107.998"
   version="1.1"
   id="svg1"
   sodipodi:docname="equal-housing-lender.svg"
   inkscape:version="1.3.2 (091e20e, 2023-11-25, custom)"
   xmlns:inkscape="http://www.inkscape.org/namespaces/inkscape"
   xmlns:sodipodi="http://sodipodi.sourceforge.net/DTD/sodipodi-0.dtd"
   xmlns:xlink="http://www.w3.org/1999/xlink"
   xmlns="http://www.w3.org/2000/svg"
   xmlns:svg="http://www.w3.org/2000/svg">
  <defs
     id="defs1">
    <linearGradient
       id="linearGradient1"
       inkscape:collect="always">
      <stop
         style="stop-color:#ffffff;stop-opacity:1;"
         offset="0"
         id="stop1" />
      <stop
         style="stop-color:#ffffff;stop-opacity:0;"
         offset="1"
         id="stop2" />
    </linearGradient>
    <rect
       x="282.71919"
       y="2201.3977"
       width="168.36086"
       height="270.01271"
       id="rect1" />
    <linearGradient
       inkscape:collect="always"
       xlink:href="#linearGradient1"
       id="linearGradient2"
       x1="5.6207357"
       y1="105.35632"
       x2="103.0215"
       y2="105.35632"
       gradientUnits="userSpaceOnUse" />
  </defs>
  <sodipodi:namedview
     id="namedview1"
     pagecolor="#ffffff"
     bordercolor="#000000"
     borderopacity="0.25"
     inkscape:showpageshadow="2"
     inkscape:pageopacity="0.0"
     inkscape:pagecheckerboard="0"
     inkscape:deskcolor="#d1d1d1"
     inkscape:zoom="0.22259721"
     inkscape:cx="1233.1691"
     inkscape:cy="1606.0399"
     inkscape:window-width="1920"
     inkscape:window-height="1001"
     inkscape:window-x="-9"
     inkscape:window-y="-9"
     inkscape:window-maximized="1"
     inkscape:current-layer="svg1" />
  <path
     d="M 0.17291465,26.72422 47.343255,0.66268504 93.4625,26.982664 v 9.160132 H 86.103949 V 68.526744 H 7.3998582 V 36.143658 H 0.17291465 Z M 47.339745,10.480988 16.987817,27.770059 V 60.283228 H 77.034519 V 27.770059 Z m -16.142832,29.67545 v -7.999716 h 31.403024 v 7.999716 z m 0,3.988659 h 31.403024 v 7.999717 H 31.196913 Z m 17.064076,49.55586 V 83.508768 h 5.518691 c 3.942049,0 6.701395,1.161276 6.701395,5.29036 0,3.999857 -2.496133,4.902687 -6.833,4.902687 h -5.387086 z m 2.889198,-8.003166 v 5.805527 h 2.365404 c 2.232922,0 3.810442,-0.38681 3.810442,-2.709359 0,-2.064109 -1.70825,-3.096168 -3.547229,-3.096168 z m 25.766764,8.003166 V 83.508768 h 7.620883 c 2.890074,0 4.073655,0.903693 4.073655,3.225382 0,1.677309 -0.920367,2.451778 -2.890953,2.710227 l 3.021681,4.257438 H 85.58893 l -3.021681,-4.257438 h -2.759346 v 4.257438 h -2.890952 z m 7.213781,-8.001443 h -4.33599 v 1.548082 h 4.204384 c 1.445037,0 1.839856,0 1.839856,-0.774469 0,-0.64439 -0.525548,-0.773613 -1.70825,-0.773613 z M 32.499816,83.508768 v 10.192189 h 2.759346 v -6.192328 l 5.518692,6.192328 h 3.284895 V 83.508768 h -2.759347 v 6.321551 L 35.78471,83.508768 Z m -26.9512208,0 V 93.700957 H 15.928825 V 91.507618 L 8.4395475,91.378399 V 83.508768 Z M 18.83557,93.700957 h 10.117017 v -2.193339 h -7.095336 v -2.193329 h 5.912634 V 87.25018 h -5.912634 v -1.548081 h 7.095336 V 83.508768 H 18.83557 Z M 63.643137,83.508768 v 10.192189 l 9.98541,-0.128361 v -2.064978 h -7.095335 v -2.193329 h 6.044239 V 87.25018 h -6.044239 v -1.548081 h 7.095335 V 83.508768 Z M 26.046719,80.9226 l 2.62774,-9.160132 h 2.233798 l 2.62774,9.160132 H 31.48908 l -0.5817,-2.064109 h -2.365405 l -0.5817,2.064109 z m 3.689365,-7.20543 -0.787884,3.612191 h 1.70825 z m -18.26696,3.851683 v -2.451776 c 0,-2.322554 0.787885,-3.612192 3.153289,-3.612192 2.62774,0 3.153288,1.548082 3.153288,3.741414 v 1.935749 c 0,1.161277 -0.131607,1.677304 -0.525548,2.451776 l 1.576643,0.516027 -0.131606,0.64525 c -5.386208,0 -7.226066,-0.129223 -7.226066,-3.226248 z m 1.9662,-2.323415 v 2.193332 c 0,1.677304 0.263213,2.19333 1.182702,2.19333 1.051096,0 1.182702,-0.386804 1.182702,-2.064109 v -2.451776 c 0,-1.806526 -0.130729,-2.064109 -1.051096,-2.064109 -1.182702,-8.61e-4 -1.314308,0.516028 -1.314308,2.193332 z m 51.379986,3.224524 c 0,1.41886 0.91949,2.580998 3.021682,2.580998 1.70825,0 3.284893,-1.161276 3.284893,-2.580998 0,-2.193332 -4.204383,-3.225386 -4.204383,-4.645108 0,-0.516026 0.525548,-0.773609 1.051097,-0.773609 0.787882,0 1.182701,0.516027 1.576643,1.290498 l 1.314308,-0.516026 c -0.130729,-1.2905 -1.051096,-2.322555 -3.021681,-2.322555 -1.576644,0 -2.890075,0.773611 -2.890075,2.322555 0,2.580998 4.204383,3.225385 4.204383,4.90269 0,0.645249 -0.393941,0.903693 -1.182702,0.903693 -0.78876,0 -1.314307,-0.516026 -1.576644,-1.418859 z M 50.640432,77.953935 v -2.966942 c 0,-2.451776 1.182702,-3.483831 3.153287,-3.483831 2.497011,0 3.153288,0.902832 3.153288,3.225387 v 2.838581 c 0,2.451776 -0.657154,3.48383 -3.153288,3.48383 -2.495256,-8.61e-4 -3.153287,-0.903693 -3.153287,-3.097025 z m 1.966198,-3.096164 v 2.837719 c 0,1.2905 0.130729,1.935749 1.182702,1.935749 0.787884,0 1.182703,-0.516027 1.182703,-2.064109 v -2.709359 c 0,-1.032054 -0.130729,-1.935749 -1.182703,-1.935749 -1.051973,0 -1.182702,0.774472 -1.182702,1.935749 z m 29.686,2.709359 c 0,2.709359 0.788761,3.48383 3.4165,3.48383 2.033757,0 2.62774,-0.936429 2.62774,-1.935748 v -2.967803 h -2.759346 v 1.41886 h 0.91949 v 1.032055 c 0,0.773609 -0.262336,1.161276 -0.91949,1.161276 -1.314308,0 -1.445037,-0.903694 -1.445037,-2.193331 v -2.06411 c 0,-1.548082 0.130729,-2.580137 1.445037,-2.580137 0.91949,0 1.445037,0.64525 1.576644,1.548082 l 1.313431,-0.516027 c -0.130729,-1.548083 -1.182702,-2.451776 -3.021681,-2.451776 -2.62774,0 -3.153288,1.418859 -3.153288,3.354608 z M 57.734013,71.760745 v 5.289496 c 0,3.097026 0.540463,4.086868 3.299809,4.086868 2.102192,0 2.875159,-1.119064 2.875159,-3.828423 v -5.547941 h -1.839856 v 5.289496 c 0,2.064109 -0.131606,2.580998 -1.182702,2.580998 -1.051096,0 -1.182702,-0.774471 -1.182702,-2.709358 v -5.161136 z m 17.465914,0.0017 v 9.160131 h 1.576643 v -6.193183 l 2.233798,6.19319 h 2.365405 V 71.762468 H 79.798252 V 77.43877 L 77.69606,71.762468 Z m -55.572087,-0.0017 v 5.547941 c 0,2.580136 0.263213,3.741413 2.890952,3.741413 3.021682,0 3.153289,-1.41886 3.153289,-3.999858 v -5.289496 h -1.839857 v 5.418718 c 0,1.806527 -0.262336,2.322554 -1.182703,2.322554 -1.051095,0 -1.182702,-0.516027 -1.182702,-2.580136 v -5.161136 z m 23.777754,0.0017 v 9.160131 h 1.839856 v -4.128218 h 2.233798 v 4.128218 h 1.838979 v -9.160114 h -1.838979 v 3.482969 H 45.24545 v -3.482969 z m -37.9754438,0 v 9.160131 h 4.7308078 v -1.41886 H 7.2700062 V 76.922742 H 9.8977465 V 75.632243 H 7.2700062 v -2.450915 h 2.8909518 v -1.41886 z m 28.9051358,0 v 9.160131 h 4.335989 v -1.41886 h -2.759346 v -7.741254 z m 37.727146,0 h 1.708251 v 9.160131 h -1.708251 z"
     id="path1"
     style="fill:#ffffff;fill-opacity:1;stroke:#ffffff;stroke-width:0.869393;stroke-opacity:1" />
  <text
     xml:space="preserve"
     transform="matrix(0.0432052,0,0,0.0432052,1.9409588,0.38069034)"
     id="text1"
     style="white-space:pre;shape-inside:url(#rect1);display:inline;fill:#ffffff;fill-opacity:1;stroke:#ffffff;stroke-width:9.96283;stroke-linecap:round;stroke-linejoin:round;stroke-opacity:1"
     inkscape:label="text1" />
  <text
     xml:space="preserve"
     style="font-size:13.1943px;fill:#ffffff;fill-opacity:1;stroke:#ffffff;stroke-width:1.01409;stroke-linecap:round;stroke-linejoin:round;stroke-dasharray:none;stroke-opacity:1"
     x="4.8392749"
     y="110.15278"
     id="text2"
     transform="scale(1.030857,0.97006666)"
     inkscape:label="text2"><tspan
       sodipodi:role="line"
       id="tspan2"
       style="fill:#ffffff;fill-opacity:1;stroke:#ffffff;stroke-width:1.01409;stroke-dasharray:none;stroke-opacity:1"
       x="4.8392749"
       y="110.15278">NMLS: 256034</tspan></text>
</svg>
