<?xml version="1.0" encoding="UTF-8" standalone="no"?>
<!-- Created with Inkscape (http://www.inkscape.org/) -->

<svg
   width="800mm"
   height="800mm"
   viewBox="0 0 800 800"
   version="1.1"
   id="svg1"
   xml:space="preserve"
   inkscape:version="1.3.2 (091e20e, 2023-11-25, custom)"
   sodipodi:docname="handshakeapproval.svg"
   xmlns:inkscape="http://www.inkscape.org/namespaces/inkscape"
   xmlns:sodipodi="http://sodipodi.sourceforge.net/DTD/sodipodi-0.dtd"
   xmlns="http://www.w3.org/2000/svg"
   xmlns:svg="http://www.w3.org/2000/svg"><sodipodi:namedview
     id="namedview1"
     pagecolor="#ffffff"
     bordercolor="#000000"
     borderopacity="0.25"
     inkscape:showpageshadow="2"
     inkscape:pageopacity="0.0"
     inkscape:pagecheckerboard="0"
     inkscape:deskcolor="#d1d1d1"
     inkscape:document-units="mm"
     inkscape:zoom="0.24787674"
     inkscape:cx="1389.8037"
     inkscape:cy="1543.1057"
     inkscape:window-width="1920"
     inkscape:window-height="1001"
     inkscape:window-x="-9"
     inkscape:window-y="-9"
     inkscape:window-maximized="1"
     inkscape:current-layer="layer2" /><defs
     id="defs1" /><g
     inkscape:label="Layer 1"
     inkscape:groupmode="layer"
     id="layer1"
     transform="translate(-25.72344,-55.164216)"><path
       style="fill:#23621c;fill-opacity:1;stroke:#23621c;stroke-width:11.3168;stroke-dasharray:none;stroke-opacity:1"
       d="m 356.41929,341.99222 28.34417,-32.51529 39.89183,34.61307 67.18623,-75.51948 31.4935,30.41759 -92.38102,102.79036 z"
       id="path9" /><path
       style="fill:none;fill-opacity:1;stroke:#000000;stroke-width:15.3323;stroke-dasharray:none;stroke-opacity:1"
       id="path26"
       sodipodi:type="arc"
       sodipodi:cx="-139.31886"
       sodipodi:cy="-544.23279"
       sodipodi:rx="118.99719"
       sodipodi:ry="120.40681"
       sodipodi:start="0.26957012"
       sodipodi:end="4.4202925"
       sodipodi:arc-type="arc"
       d="m -24.619198,-512.1664 a 118.99719,120.40681 0 0 1 -124.487762,87.9324 118.99719,120.40681 0 0 1 -108.55529,-107.39435 118.99719,120.40681 0 0 1 84.07689,-127.91109"
       sodipodi:open="true"
       transform="matrix(-0.73015528,0.68328125,-0.62287464,-0.78232166,0,0)" /><path
       style="fill:none;fill-opacity:1;stroke:#000000;stroke-width:15.3079;stroke-dasharray:none;stroke-opacity:1"
       id="path28"
       sodipodi:type="arc"
       sodipodi:cx="433.94492"
       sodipodi:cy="349.07074"
       sodipodi:rx="98.756584"
       sodipodi:ry="93.519379"
       sodipodi:start="1.0981241"
       sodipodi:end="2.012483"
       sodipodi:open="true"
       sodipodi:arc-type="arc"
       d="m 478.90554,432.33618 a 98.756584,93.519379 0 0 1 -87.1756,1.27907" /></g><g
     inkscape:groupmode="layer"
     id="layer2"
     inkscape:label="handshake"
     transform="translate(-25.72344,-55.164216)"><g
       style="fill:#000000"
       id="g26"
       transform="matrix(2.9941677,0,0,2.501362,117.5205,338.13735)"><g
         id="g2">
	<g
   id="g1">
		<path
   d="m 204.539,80.265 -63.92,-63.92 c -4.051,-4.055 -10.654,-4.048 -14.716,0.014 l -9.838,9.837 c -1.973,1.975 -3.061,4.591 -3.061,7.37 -0.002,2.772 1.081,5.381 3.047,7.346 l 2.879,2.879 c -3.473,1.371 -8.345,3.524 -13.851,6.588 C 99.384,46.04 94.751,42.601 91.871,40.486 95.534,36.411 95.436,30.125 91.508,26.197 L 81.67,16.357 C 77.604,12.302 71.003,12.298 66.955,16.346 L 3.035,80.266 C -1.018,84.317 -1.011,90.92 3.05,94.982 l 9.838,9.84 c 2.034,2.029 4.703,3.047 7.372,3.047 2.479,0 4.938,-0.916 6.901,-2.676 2.288,3.148 6.044,8.257 10.514,14.138 l -10.052,10.05 c -0.651,0.651 -1.018,1.534 -1.018,2.457 0,0.923 0.367,1.805 1.018,2.457 l 12.286,12.286 -10e-4,0.001 4.913,4.913 0.001,-0.001 7.371,7.371 4.913,4.913 9.829,9.829 -0.001,0.001 4.915,4.913 14.74,14.74 c 0.679,0.679 1.568,1.018 2.457,1.018 0.889,0 1.778,-0.339 2.457,-1.018 l 10.742,-10.74 c 6.532,4.877 11.295,8.287 11.809,8.653 0.607,0.434 1.315,0.648 2.017,0.648 0.896,0 1.787,-0.346 2.458,-1.018 l 46.676,-46.676 c 10e-4,-10e-4 0.003,-0.002 0.005,-0.003 0.002,-0.002 0.002,-0.003 0.003,-0.005 l 12.282,-12.282 c 1.201,-1.201 1.357,-3.094 0.371,-4.476 -0.391,-0.548 -4.228,-5.904 -9.618,-13.095 l 7.033,-14.126 4.69,4.69 c 2.024,2.026 4.684,3.037 7.346,3.037 2.667,0 5.337,-1.018 7.37,-3.05 l 9.838,-9.837 c 1.973,-1.975 3.061,-4.591 3.061,-7.37 0.002,-2.772 -1.08,-5.381 -3.047,-7.346 z M 22.687,99.919 c -1.36,1.37 -3.51,1.36 -4.887,-0.014 L 7.963,90.068 C 6.611,88.714 6.604,86.522 7.948,85.179 l 63.92,-63.92 c 0,0 0,0 0.002,0 0.679,-0.682 1.554,-1.021 2.429,-1.021 0.882,0 1.768,0.346 2.458,1.035 l 9.837,9.837 c 1.352,1.354 1.359,3.546 0.015,4.889 z m 12.306,31.919 6.949,-6.947 c 2.807,3.619 5.755,7.337 8.709,10.946 l -5.829,5.83 z m 22.112,22.113 -7.371,-7.372 5.381,-5.382 c 2.408,2.827 4.747,5.459 6.949,7.795 z m 14.742,14.74 -9.827,-9.827 4.959,-4.959 c 3.055,2.881 6.64,6.006 10.461,9.191 z m 17.198,17.199 -12.284,-12.284 6.08,-6.083 c 4.671,3.762 9.426,7.45 13.799,10.773 z m 81.444,-56.875 -7.738,7.737 -31.938,-31.941 c -1.357,-1.357 -3.556,-1.357 -4.913,0 -1.357,1.357 -1.357,3.556 0,4.913 l 31.938,31.941 -9.827,9.827 -31.939,-31.939 c -1.357,-1.357 -3.556,-1.357 -4.913,0 -1.357,1.357 -1.357,3.556 0,4.913 l 31.939,31.939 -9.827,9.827 -31.94,-31.94 c -1.357,-1.357 -3.556,-1.357 -4.913,0 -1.357,1.357 -1.357,3.556 0,4.913 l 31.94,31.94 -12.65,12.65 C 107.688,177.972 81.537,158.723 69.392,146.579 62.452,139.637 53.195,128.125 45.443,118.032 45.279,117.7 45.098,117.373 44.822,117.097 44.765,117.04 44.69,117.022 44.631,116.97 39.177,109.843 34.55,103.536 32.173,100.264 L 86.945,45.489 c 2.413,1.767 6.537,4.815 11.714,8.738 -5.524,3.558 -11.313,7.95 -16.7,13.338 -8.317,8.313 -13.805,14.394 -16.779,18.584 -1.462,2.06 -4.885,6.885 -1.615,10.149 0.763,0.763 2.185,2.185 15.744,3.461 0.108,0.01 0.217,0.014 0.326,0.014 0.509,0 1.015,-0.112 1.478,-0.329 7.227,-3.393 20.605,-8.537 25.625,-7.984 7.971,0.895 19.772,-5.713 26.161,-9.317 0.125,0.187 0.206,0.394 0.371,0.559 12.141,12.141 31.395,38.295 37.219,46.313 z m -6.923,-20.931 c -8.019,-10.483 -17.874,-22.787 -25.383,-30.296 -0.434,-0.434 -0.964,-0.678 -1.515,-0.835 -0.068,-0.239 -0.093,-0.485 -0.216,-0.713 -0.909,-1.69 -3.017,-2.324 -4.706,-1.415 -0.572,0.309 -1.308,0.723 -2.173,1.211 -4.864,2.752 -16.255,9.165 -22.043,8.52 -7.928,-0.913 -24.186,6.219 -28.497,8.191 -3.252,-0.333 -6.847,-0.818 -9.099,-1.262 1.464,-2.368 5.561,-7.631 16.939,-19.008 14.104,-14.104 31.676,-21.212 37.457,-23.289 l 45.771,45.771 z m 36.045,-18.016 -9.837,9.837 c -1.354,1.354 -3.546,1.354 -4.889,0.014 L 128.008,43.042 c -0.066,-0.083 -0.146,-0.142 -0.218,-0.218 l -6.825,-6.825 c -0.653,-0.651 -1.011,-1.517 -1.011,-2.433 0,-0.923 0.365,-1.795 1.026,-2.457 l 9.837,-9.837 c 0.679,-0.679 1.569,-1.018 2.457,-1.018 0.882,0 1.763,0.336 2.433,1.004 l 63.92,63.92 c 0.653,0.651 1.011,1.517 1.011,2.433 -0.001,0.923 -0.365,1.795 -1.027,2.457 z"
   id="path1" />
	</g>
</g></g></g></svg>
