<?xml version="1.0" encoding="UTF-8" standalone="no"?>
<!-- Uploaded to: SVG Repo, www.svgrepo.com, Generator: SVG Repo Mixer Tools -->

<svg
   width="800"
   height="800"
   viewBox="0 0 24 24"
   role="img"
   aria-labelledby="personIconTitle"
   stroke="#000000"
   stroke-width="1"
   stroke-linecap="square"
   stroke-linejoin="miter"
   fill="none"
   color="#000000"
   version="1.1"
   id="svg1"
   sodipodi:docname="personhome.svg"
   inkscape:version="1.3.2 (091e20e, 2023-11-25, custom)"
   xml:space="preserve"
   xmlns:inkscape="http://www.inkscape.org/namespaces/inkscape"
   xmlns:sodipodi="http://sodipodi.sourceforge.net/DTD/sodipodi-0.dtd"
   xmlns="http://www.w3.org/2000/svg"
   xmlns:svg="http://www.w3.org/2000/svg"
   xmlns:rdf="http://www.w3.org/1999/02/22-rdf-syntax-ns#"
   xmlns:cc="http://creativecommons.org/ns#"
   xmlns:dc="http://purl.org/dc/elements/1.1/"><defs
     id="defs1" /><sodipodi:namedview
     id="namedview1"
     pagecolor="#ffffff"
     bordercolor="#000000"
     borderopacity="0.25"
     inkscape:showpageshadow="2"
     inkscape:pageopacity="0.0"
     inkscape:pagecheckerboard="0"
     inkscape:deskcolor="#d1d1d1"
     inkscape:zoom="0.6956163"
     inkscape:cx="611.68779"
     inkscape:cy="370.17534"
     inkscape:window-width="1920"
     inkscape:window-height="1001"
     inkscape:window-x="-9"
     inkscape:window-y="-9"
     inkscape:window-maximized="1"
     inkscape:current-layer="svg1" /><title
     id="personIconTitle">Person</title><path
     d="m 0.92227024,20.08985 c 0,-2.769317 3.65023246,-2.769317 5.47534846,-4.615529 0.9125579,-0.923106 -1.825116,-0.923106 -1.825116,-5.5386337 0,-3.0767106 1.2164398,-4.6155278 3.6502324,-4.6155278 2.4337909,0 3.6502319,1.5388172 3.6502319,4.6155278 0,4.6155277 -2.737674,4.6155277 -1.825116,5.5386337 1.825116,1.846212 5.475349,1.846212 5.475349,4.615529"
     id="path1"
     style="stroke-width:0.550702;stroke-dasharray:none" /><g
     id="g3"
     style="stroke-width:0.600011;stroke-linecap:round;stroke-linejoin:round;stroke-dasharray:none"
     transform="matrix(0.9125581,0,0,0.92310572,-2.9678141,1.3357418)"><path
       style="fill:none;stroke:#000000;stroke-width:0.600011;stroke-linecap:round;stroke-linejoin:round;stroke-dasharray:none"
       d="m 20.29479,20.310038 -0.01525,-6.952986 4.086405,-3.4764929 3.811944,3.4764929 0.09149,6.983481 -7.95934,-0.0305"
       id="path2"
       sodipodi:nodetypes="cccccc" /><path
       style="fill:none;stroke:#000000;stroke-width:0.600011;stroke-linecap:round;stroke-linejoin:round;stroke-dasharray:none"
       d="m 23.054638,20.249047 -0.09149,-4.848793 2.409149,-0.0305 0.09149,4.787801"
       id="path3"
       sodipodi:nodetypes="cccc" /></g><metadata
     id="metadata3"><rdf:RDF><cc:Work
         rdf:about=""><dc:title>Person</dc:title></cc:Work></rdf:RDF></metadata><g
     style="fill:none;stroke:#23621c;stroke-width:1.42879;stroke-dasharray:none;stroke-opacity:1"
     id="g1"
     transform="matrix(0.32405393,0,0,0.30749947,12.722161,1.8452194)"><path
       d="M 12.75,9.807 C 12.7497,8.68487 12.4348,7.5853 11.8409,6.63318 11.247,5.68107 10.3981,4.91457 9.39043,4.42075 8.38279,3.92693 7.25687,3.72558 6.14053,3.83956 5.0242,3.95355 3.9622,4.3783 3.07516,5.06558 2.18812,5.75286 1.51159,6.67512 1.12241,7.7276 0.733232,8.78009 0.647,9.92062 0.87351,11.0197 c 0.22651,1.099 0.75668,2.1125 1.5303,2.9253 0.77363,0.8129 1.75969,1.3925 2.84619,1.673 v 6.136 c 0,0.3978 0.15804,0.7794 0.43934,1.0607 0.28131,0.2813 0.66284,0.4393 1.06066,0.4393 0.39783,0 0.77936,-0.158 1.06066,-0.4393 C 8.09197,22.5334 8.25,22.1518 8.25,21.754 v -6.136 c 1.28819,-0.3326 2.4293,-1.0839 3.2439,-2.1358 0.8146,-1.0519 1.2564,-2.3448 1.2561,-3.6752 z"
       stroke="#71717a"
       stroke-width="1.5"
       stroke-linecap="round"
       stroke-linejoin="round"
       id="path1-9"
       style="fill:none;stroke:#23621c;stroke-width:1.42879;stroke-dasharray:none;stroke-opacity:1" /><path
       d="M 9.74121,4.605 C 10.8897,3.94419 12.2247,3.68215 13.5377,3.85976 c 1.3131,0.17761 2.5305,0.78488 3.4621,1.72706 0.9317,0.94218 1.5253,2.16627 1.6882,3.48126 0.1629,1.31502 -0.1141,2.64692 -0.7878,3.78792 l 4.91,4.906 c 0.2732,0.2829 0.4244,0.6618 0.421,1.0551 -0.0034,0.3933 -0.1611,0.7695 -0.4393,1.0476 -0.2781,0.2781 -0.6543,0.4359 -1.0476,0.4393 -0.3933,0.0034 -0.7722,-0.1478 -1.0551,-0.421 l -4.907,-4.906 c -0.6677,0.3941 -1.4057,0.6544 -2.1726,0.7664 h -0.0432"
       stroke="#71717a"
       stroke-width="1.5"
       stroke-linecap="round"
       stroke-linejoin="round"
       id="path2-4"
       style="fill:none;stroke:#23621c;stroke-width:1.42879;stroke-dasharray:none;stroke-opacity:1" /><path
       d="m 6.75,10.557 c 0.82843,0 1.5,-0.67157 1.5,-1.5 0,-0.82843 -0.67157,-1.5 -1.5,-1.5 -0.82843,0 -1.5,0.67157 -1.5,1.5 0,0.82843 0.67157,1.5 1.5,1.5 z"
       stroke="#71717a"
       stroke-width="1.5"
       stroke-linecap="round"
       stroke-linejoin="round"
       id="path3-0"
       style="fill:none;stroke:#23621c;stroke-width:1.42879;stroke-dasharray:none;stroke-opacity:1" /><path
       d="M 6.75,7.40625 V 3 C 6.75,2.40326 6.98705,1.83097 7.40901,1.40901 7.83097,0.987053 8.40326,0.75 9,0.75 c 0.59674,0 1.169,0.237053 1.591,0.65901 C 11.0129,1.83097 11.25,2.40326 11.25,3 v 0.76562"
       stroke="#71717a"
       stroke-width="1.5"
       stroke-linecap="round"
       stroke-linejoin="round"
       id="path4"
       style="fill:none;stroke:#23621c;stroke-width:1.42879;stroke-dasharray:none;stroke-opacity:1" /></g></svg>
