<?xml version="1.0" encoding="UTF-8" standalone="no"?>
<!-- License: CC Attribution. Made by Nishanth kunder: https://www.behance.net/nishuk -->

<svg
   version="1.1"
   id="Layer_1"
   width="800"
   height="800"
   viewBox="0 0 49 64.000001"
   enable-background="new 0 0 49 64"
   xml:space="preserve"
   sodipodi:docname="signingdocument.svg"
   inkscape:version="1.3.2 (091e20e, 2023-11-25, custom)"
   xmlns:inkscape="http://www.inkscape.org/namespaces/inkscape"
   xmlns:sodipodi="http://sodipodi.sourceforge.net/DTD/sodipodi-0.dtd"
   xmlns="http://www.w3.org/2000/svg"
   xmlns:svg="http://www.w3.org/2000/svg"
   xmlns:rdf="http://www.w3.org/1999/02/22-rdf-syntax-ns#"
   xmlns:cc="http://creativecommons.org/ns#"
   xmlns:dc="http://purl.org/dc/elements/1.1/"
   xmlns:sketch="http://www.bohemiancoding.com/sketch/ns"><defs
   id="defs1" /><sodipodi:namedview
   id="namedview1"
   pagecolor="#ffffff"
   bordercolor="#000000"
   borderopacity="0.25"
   inkscape:showpageshadow="2"
   inkscape:pageopacity="0.0"
   inkscape:pagecheckerboard="0"
   inkscape:deskcolor="#d1d1d1"
   inkscape:zoom="0.6956163"
   inkscape:cx="324.17297"
   inkscape:cy="347.17415"
   inkscape:window-width="1920"
   inkscape:window-height="1001"
   inkscape:window-x="-9"
   inkscape:window-y="-9"
   inkscape:window-maximized="1"
   inkscape:current-layer="Page-1" />
<title
   id="title1">Document</title>
<desc
   id="desc1">Created with Sketch.</desc>
<g
   id="Page-1"
   sketch:type="MSPage"
   transform="translate(-3.2637241,-6.4207311)">
	<g
   id="Document"
   transform="matrix(0.77017139,0,0,0.82455625,-0.47595025,12.53556)"
   sketch:type="MSLayerGroup">
		<path
   id="Shape_1_"
   sketch:type="MSShapeGroup"
   fill="none"
   stroke="#000000"
   stroke-width="2"
   d="m 47,18.1 -0.111635,12.938629 -9.286773,10.326284 -2.331899,12.555242 12.001869,-0.756536 -0.10891,7.89356 C 47.147476,62.157075 46.1,62 45,62 H 2 C 0.9,62 0,61.1 0,60 V 2 C 0,0.9 0.9,0 2,0 h 25.9 z"
   sodipodi:nodetypes="cccccsssssscc" />
		<path
   id="Shape"
   sketch:type="MSShapeGroup"
   fill="none"
   stroke="#000000"
   stroke-width="2"
   d="M 47,18.9 H 30 c -1.1,0 -2,-0.9 -2,-2 V 1" />
		<path
   id="Shape_2_"
   sketch:type="MSShapeGroup"
   fill="none"
   stroke="#000000"
   stroke-width="2"
   d="M 9,17 H 22" />
		<path
   id="Shape_3_"
   sketch:type="MSShapeGroup"
   fill="none"
   stroke="#000000"
   stroke-width="2"
   d="M 9,27 H 40"
   style="fill:#4d4d4d;stroke:#23621c;stroke-opacity:1" />
		<path
   id="Shape_4_"
   sketch:type="MSShapeGroup"
   fill="none"
   stroke="#000000"
   stroke-width="2"
   d="M 9,34 H 40" />
	</g>
</g><g
   inkscape:groupmode="layer"
   id="layer1"
   inkscape:label="pen"
   transform="translate(-3.1010812,-7.3965888)"><path
     id="Path_11"
     data-name="Path 11"
     d="m 57.20469,29.740573 -4.816828,-5.620491 c -1.202106,-1.402873 -2.695565,-0.992261 -3.935031,0.372838 l -20.56958,22.773455 c -0.197348,0.217295 -0.433263,0.31432 -0.474364,0.622498 l -1.423672,9.67769 c -0.124236,0.930931 0.137415,1.236243 0.961902,1.122415 l 8.075706,-0.783153 c 0.272938,-0.03767 0.968962,-0.478706 1.166288,-0.696025 L 57.099123,33.512218 c 1.239499,-1.364983 1.30771,-2.368887 0.105565,-3.771645 z m -22.039807,26.276244 -8.080495,1.602645 1.314988,-9.227916 15.058947,-16.336335 6.202313,7.528875 z m 20.618871,-22.9773 -4.299046,4.639562 -6.316462,-7.370368 4.475955,-4.846222 c 0.243153,-0.267751 0.381768,-0.01049 0.525244,0.145891 l 5.231127,6.118935 c 0.235916,0.275085 0.781197,0.815067 0.579687,1.073316 z"
     fill="#000000"
     style="stroke-width:0.00763252;stroke-dasharray:none"
     sodipodi:nodetypes="cccccccccccccccccccccccccc" /></g>
<metadata
   id="metadata2"><rdf:RDF><cc:Work
       rdf:about=""><dc:title>Document</dc:title></cc:Work></rdf:RDF></metadata></svg>
