<?xml version="1.0" encoding="UTF-8" standalone="no"?>
<!-- Created with Inkscape (http://www.inkscape.org/) -->

<svg
   width="800mm"
   height="800mm"
   viewBox="0 0 800 800"
   version="1.1"
   id="svg1"
   xml:space="preserve"
   inkscape:version="1.3.2 (091e20e, 2023-11-25, custom)"
   sodipodi:docname="welcomehome.svg"
   xmlns:inkscape="http://www.inkscape.org/namespaces/inkscape"
   xmlns:sodipodi="http://sodipodi.sourceforge.net/DTD/sodipodi-0.dtd"
   xmlns="http://www.w3.org/2000/svg"
   xmlns:svg="http://www.w3.org/2000/svg"><sodipodi:namedview
     id="namedview1"
     pagecolor="#ffffff"
     bordercolor="#000000"
     borderopacity="0.25"
     inkscape:showpageshadow="2"
     inkscape:pageopacity="0.0"
     inkscape:pagecheckerboard="0"
     inkscape:deskcolor="#d1d1d1"
     inkscape:document-units="mm"
     inkscape:zoom="0.25078791"
     inkscape:cx="915.11589"
     inkscape:cy="1098.5378"
     inkscape:window-width="1920"
     inkscape:window-height="1001"
     inkscape:window-x="-9"
     inkscape:window-y="-9"
     inkscape:window-maximized="1"
     inkscape:current-layer="layer1" /><defs
     id="defs1" /><g
     inkscape:label="Layer 1"
     inkscape:groupmode="layer"
     id="layer1"><g
       id="g10"
       transform="matrix(0.60978636,0,0,0.66549767,456.00042,399.44176)"
       style="fill:#23621c;fill-opacity:1;stroke-width:0.428189;stroke-dasharray:none">
	<g
   id="g9"
   style="fill:#23621c;fill-opacity:1;stroke-width:0.428189;stroke-dasharray:none">
		<g
   id="g8"
   style="fill:#23621c;fill-opacity:1;stroke-width:0.428189;stroke-dasharray:none">
			<path
   d="m 466.467,86.576 h -13.699 c 0,-77.128 -107.328,-77.208 -107.328,0 H 166.56 c 0,-77.128 -107.328,-77.208 -107.328,0 h -13.7 C 20.426,86.576 0,107.002 0,132.109 v 185.046 c 0,25.107 20.426,45.533 45.533,45.533 h 13.699 v 101.096 c 0,10.777 8.737,19.514 19.514,19.514 h 68.299 c 10.777,0 19.514,-8.737 19.514,-19.514 V 362.688 h 178.88 v 101.096 c 0,10.777 8.737,19.514 19.514,19.514 h 68.299 c 10.777,0 19.514,-8.737 19.514,-19.514 V 362.688 h 13.699 c 25.107,0 45.533,-20.426 45.533,-45.533 V 132.109 C 512,107.002 491.573,86.576 466.467,86.576 Z m -52.728,0 h -29.271 c -0.001,-25.317 29.271,-25.662 29.271,0 z m -286.208,0 H 98.26 c 0,-25.317 29.271,-25.662 29.271,0 z m 0,357.694 H 98.26 v -81.582 h 29.271 z m 286.208,0 h -29.271 v -81.582 h 29.271 z m 59.233,-127.115 c 0,3.587 -2.918,6.505 -6.505,6.505 -4.763,0 -416.33,0 -420.934,0 -3.587,0 -6.505,-2.918 -6.505,-6.505 V 132.109 c 0,-3.587 2.918,-6.505 6.505,-6.505 8.673,0 415.831,0 420.934,0 3.587,0 6.505,2.918 6.505,6.505 z"
   id="path1-5"
   style="fill:#23621c;fill-opacity:1;stroke-width:0.428189;stroke-dasharray:none" />
			<path
   d="m 120.652,192.517 -12.528,42.282 -6.511,-27.858 c -0.997,-4.49 -11.365,-4.493 -12.363,0 l -6.511,27.858 -12.528,-42.282 c -1.445,-5.052 -13.979,-1.291 -12.281,3.791 l 16.402,50.276 c 1.838,5.854 15.54,5.569 16.813,0 l 4.287,-19.534 4.285,19.534 c 1.255,5.491 14.779,5.935 16.815,0 l 16.401,-50.276 c 1.679,-5.101 -10.842,-8.831 -12.281,-3.791 z"
   id="path2"
   style="fill:#23621c;fill-opacity:1;stroke:#23621c;stroke-width:0.428189;stroke-dasharray:none;stroke-opacity:1" />
			<path
   d="m 179.343,201.335 c 5.093,0 5.258,-11.209 0,-11.209 h -29.341 c -2.804,0 -5.606,1.319 -5.606,3.956 v 52.337 c 0,2.637 2.804,3.956 5.606,3.956 h 29.341 c 5.255,0 5.096,-11.209 0,-11.209 h -22.089 v -14.011 h 12.363 c 5.24,0 5.083,-9.891 0,-9.891 h -12.363 v -13.929 z"
   id="path3"
   style="fill:#23621c;fill-opacity:1;stroke:#23621c;stroke-width:0.428189;stroke-dasharray:none;stroke-opacity:1" />
			<path
   d="M 227.064,239.166 H 208.273 V 194 c 0,-2.72 -3.213,-3.874 -6.429,-3.874 -3.213,0 -6.428,1.154 -6.428,3.874 v 52.419 c 0,2.637 2.804,3.956 5.606,3.956 h 26.042 c 4.946,0 4.946,-11.209 0,-11.209 z"
   id="path4"
   style="fill:#23621c;fill-opacity:1;stroke:#23621c;stroke-width:0.428189;stroke-dasharray:none;stroke-opacity:1" />
			<path
   d="m 261.275,201.336 c 7.006,0 7.251,5.274 7.336,7.417 0.164,2.967 2.967,3.874 6.429,3.874 4.367,0 6.428,-1.154 6.428,-6.099 0,-20.607 -40.468,-24.734 -40.468,3.049 v 21.842 c 0,27.724 40.468,24.001 40.468,2.226 0,-4.945 -2.061,-6.099 -6.511,-6.099 -3.297,0 -6.1,0.825 -6.347,3.874 -0.246,3.215 -0.66,8.241 -7.253,8.241 -4.78,0 -7.5,-2.637 -7.5,-8.241 v -21.841 c 0,-5.606 2.72,-8.243 7.418,-8.243 z"
   id="path5"
   style="fill:#23621c;fill-opacity:1;stroke:#23621c;stroke-width:0.428189;stroke-dasharray:none;stroke-opacity:1" />
			<path
   d="m 314.111,190.126 c -11.375,0 -20.195,5.275 -20.195,19.452 v 21.842 c 0,14.176 8.819,19.45 20.195,19.452 11.373,0 20.275,-5.275 20.275,-19.452 v -21.842 c 0,-14.177 -8.902,-19.452 -20.275,-19.452 z m 7.415,41.293 c 0,5.686 -2.801,8.241 -7.417,8.241 -4.616,0 -7.336,-2.555 -7.336,-8.241 v -21.842 c 0,-5.688 2.72,-8.243 7.336,-8.243 4.616,0 7.417,2.555 7.417,8.243 z"
   id="path6"
   style="fill:#23621c;fill-opacity:1;stroke:#23621c;stroke-width:0.428189;stroke-dasharray:none;stroke-opacity:1" />
			<path
   d="m 392.577,190.127 c -4.617,0 -6.593,0.493 -9.973,6.428 l -8.489,14.836 -8.49,-14.836 c -3.379,-5.934 -5.357,-6.428 -9.972,-6.428 -3.215,0 -6.429,1.73 -6.429,6.428 v 49.865 c 0,5.275 12.859,5.275 12.859,0 v -31.733 l 7.829,14.342 c 1.73,3.32 6.483,3.116 8.323,0 l 7.911,-13.517 v 30.908 c 0,5.275 12.859,5.275 12.859,0 v -49.865 c 0,-4.697 -3.132,-6.428 -6.428,-6.428 z"
   id="path7"
   style="fill:#23621c;fill-opacity:1;stroke:#23621c;stroke-width:0.428189;stroke-dasharray:none;stroke-opacity:1" />
			<path
   d="m 449.452,201.335 c 5.094,0 5.256,-11.209 0,-11.209 h -29.341 c -2.804,0 -5.606,1.319 -5.606,3.956 v 52.337 c 0,2.637 2.804,3.956 5.606,3.956 h 29.341 c 5.255,0 5.096,-11.209 0,-11.209 h -22.089 v -14.011 h 12.363 c 5.24,0 5.083,-9.891 0,-9.891 h -12.363 v -13.929 z"
   id="path8"
   style="fill:#23621c;fill-opacity:1;stroke:#23621c;stroke-width:0.428189;stroke-dasharray:none;stroke-opacity:1" />
		</g>
	</g>
</g><path
       style="fill:#010600;fill-opacity:1;stroke:#23621c;stroke-width:2.636;stroke-linecap:round;stroke-linejoin:round"
       d="m 389.79784,333.46358 c 5.96802,0 90.62844,-2.23801 90.62844,-2.23801 l -0.74602,67.88632 -88.7744,1.49201 z"
       id="path11"
       sodipodi:nodetypes="ccccc" /><path
       style="fill:#030303;fill-opacity:1;stroke:#23621c;stroke-width:2.636;stroke-linecap:round;stroke-linejoin:round"
       d="m 135.02664,601.27885 0.746,-237.22912 165.6128,-2.984 1.492,242.45115 -20.14211,-3e-5 -2.238,-219.32503 -121.59858,0.74601 v 216.34102 z"
       id="path12"
       sodipodi:nodetypes="ccccccccc" /></g><g
     inkscape:groupmode="layer"
     id="layer2"
     inkscape:label="house"
     style="stroke:#030303;stroke-opacity:1;fill:#000100;fill-opacity:1"><path
       style="fill:#000100;stroke:#030303;stroke-width:2.636;stroke-linecap:round;stroke-linejoin:round;stroke-opacity:1;fill-opacity:1"
       d="m 59.514801,601.06035 19.561573,0.2185 0.746004,-335.70159 250.657202,-174.564829 244.30516,177.420859 0.075,189.61289 26.72815,-0.74601 0.61801,-195.27191 L 330.10657,65.275311 59.680284,255.13321 Z"
       id="path9"
       sodipodi:nodetypes="ccccccccccc" /><path
       style="fill:#000100;stroke:#030303;stroke-width:2.636;stroke-linecap:round;stroke-linejoin:round;stroke-opacity:1;fill-opacity:1"
       d="m 532.28451,209.88298 -0.30901,-48.74622 26.03514,-14.92007 1.49201,85.04441 z"
       id="path10"
       sodipodi:nodetypes="ccccc" /></g></svg>
