
<svg version="1.0" xmlns="http://www.w3.org/2000/svg"
 width="2340pt" height="1656pt" viewBox="0 0 1170.000000 828.000000"
 preserveAspectRatio="xMidYMid meet">

<g transform="translate(0.000000,828.000000) scale(0.100000,-0.100000)"
fill="#000000" stroke="none">
<path d="M5230 7888 c-30 -28 -107 -101 -170 -162 -142 -136 -434 -414 -474
-450 -17 -15 -122 -116 -235 -224 -113 -109 -246 -236 -295 -282 -49 -47 -117
-112 -151 -145 -34 -33 -128 -123 -210 -200 -180 -169 -194 -183 -327 -310
-298 -287 -647 -620 -703 -670 -16 -15 -91 -87 -166 -159 -74 -72 -214 -205
-310 -296 -96 -91 -226 -216 -290 -277 -63 -62 -117 -113 -120 -113 -3 0 -61
-55 -130 -123 -68 -67 -196 -189 -283 -272 -239 -226 -249 -235 -243 -242 10
-9 409 -12 431 -3 21 9 84 67 257 236 47 46 88 84 91 84 2 0 49 44 104 98 54
53 161 156 238 227 76 72 164 155 195 185 31 30 126 120 210 200 85 80 179
170 211 200 87 84 379 361 415 395 36 34 139 131 260 244 159 150 451 428 570
542 145 141 212 199 228 199 7 0 106 -93 222 -205 115 -113 216 -205 223 -205
7 0 23 10 36 23 145 141 494 469 510 479 24 16 41 4 156 -109 65 -65 295 -291
511 -503 216 -212 478 -469 583 -572 119 -118 194 -184 202 -180 7 4 146 139
309 300 264 260 296 294 284 309 -15 17 -277 277 -766 760 -167 164 -524 516
-794 783 -270 267 -498 486 -507 488 -10 1 -42 -21 -72 -50z"/>
<g fill="#880F0A">
<path d="M7899 6207 c-1832 -1807 -2269 -2240 -2269 -2249 0 -4 337 -8 748 -8
l748 0 105 101 c57 56 304 298 548 538 243 240 513 505 600 589 86 85 222 219
304 300 135 133 150 145 172 136 13 -5 102 -84 197 -175 95 -91 191 -183 213
-203 96 -90 368 -348 460 -436 88 -85 159 -152 286 -271 106 -100 377 -358
477 -454 63 -60 120 -113 128 -118 7 -4 78 -6 156 -5 l143 3 -56 55 c-30 30
-102 100 -160 155 -330 316 -497 475 -520 496 -15 13 -106 101 -204 194 -97
94 -196 188 -219 210 -71 67 -394 374 -496 471 -52 51 -111 106 -130 124 -19
18 -87 82 -151 144 -63 61 -196 188 -294 281 -98 94 -231 220 -294 282 -107
103 -164 153 -173 153 -1 0 -145 -141 -319 -313z"/>
</g>
<path d="M4179 5644 c-5 -7 -8 -121 -7 -270 l3 -259 273 -3 272 -2 0 270 c0
250 -1 270 -17 271 -10 1 -130 2 -266 3 -173 1 -252 -2 -258 -10z"/>
<path d="M4840 5650 l-45 -5 2 -260 c1 -143 2 -263 3 -267 0 -5 119 -8 265 -8
l265 0 0 23 c3 153 -2 512 -6 516 -7 7 -423 8 -484 1z"/>
<path d="M4177 5023 c-4 -3 -7 -120 -7 -258 0 -202 3 -255 14 -264 9 -8 90
-11 272 -9 l259 3 3 268 2 267 -268 0 c-148 0 -272 -3 -275 -7z"/>
<path d="M4796 5008 c-8 -30 -8 -466 0 -495 l6 -23 259 0 c179 0 260 3 265 11
9 16 18 448 10 492 l-7 37 -263 0 -264 0 -6 -22z"/>
<path d="M8259 4872 c-36 -37 -170 -170 -298 -296 l-232 -229 195 -196 196
-196 599 0 c330 0 603 3 607 8 8 8 -107 132 -168 182 -20 17 -37 36 -38 43 0
6 -4 12 -9 12 -9 0 -133 121 -521 506 -130 129 -242 234 -250 233 -8 0 -45
-30 -81 -67z"/>
<g fill="#880F0A">
<path d="M8727 3693 c-4 -3 -7 -495 -7 -1093 0 -1040 1 -1088 18 -1103 16 -14
45 -17 190 -17 168 0 172 0 187 23 13 20 15 156 17 1099 0 591 -2 1080 -6
1086 -8 13 -387 18 -399 5z"/>
<path d="M1050 3658 c-12 -33 -72 -272 -90 -358 -14 -65 -26 -117 -43 -185
-15 -57 -47 -192 -69 -280 -5 -22 -13 -64 -19 -93 -5 -29 -16 -71 -23 -95 -8
-23 -17 -58 -21 -77 -4 -19 -19 -89 -35 -155 -16 -66 -42 -181 -60 -255 -17
-74 -42 -180 -55 -235 -24 -97 -81 -338 -90 -382 -8 -33 18 -50 90 -58 60 -6
269 1 305 11 20 5 36 45 50 129 7 39 19 104 27 145 9 41 23 114 33 161 9 48
20 92 24 98 5 8 79 11 241 11 220 0 235 -1 244 -19 6 -11 29 -113 51 -228 50
-257 56 -280 80 -293 10 -6 94 -10 194 -10 197 0 210 4 200 63 -7 41 -39 190
-71 332 -28 123 -66 297 -107 485 -15 69 -31 139 -36 155 -10 32 -61 257 -90
395 -10 47 -35 157 -55 245 -20 88 -48 210 -61 270 -36 167 -54 229 -72 243
-12 9 -82 12 -273 12 l-257 0 -12 -32z m299 -418 c17 -140 40 -295 52 -350 6
-25 19 -94 29 -155 10 -60 28 -161 40 -224 11 -62 18 -122 15 -132 -6 -18 -18
-19 -170 -19 -92 0 -166 4 -170 9 -3 6 8 76 24 158 16 81 31 159 34 173 2 14
18 93 35 175 38 191 49 263 63 405 17 183 23 178 48 -40z"/>
<path d="M2357 3684 c-4 -4 -7 -490 -7 -1080 0 -1007 1 -1073 18 -1093 l17
-22 445 3 c419 3 449 5 506 24 186 63 307 227 369 499 33 146 50 463 41 795
-7 271 -14 329 -52 473 -50 184 -157 305 -331 375 l-68 27 -465 3 c-256 2
-469 0 -473 -4z m784 -336 c66 -29 113 -87 139 -173 38 -129 41 -162 47 -485
10 -581 -23 -754 -156 -835 -65 -39 -139 -54 -272 -55 -97 0 -119 3 -130 17
-12 13 -13 143 -11 777 2 418 6 765 9 770 10 15 333 2 374 -16z"/>
<path d="M4132 3678 c-9 -9 -12 -256 -12 -1052 0 -573 3 -1058 6 -1079 4 -22
15 -42 25 -48 12 -6 218 -10 556 -9 486 0 538 1 555 16 16 15 18 33 18 138 -1
83 -5 126 -14 138 -11 16 -46 18 -365 20 -300 3 -353 5 -361 18 -15 24 -13
647 3 657 6 4 161 10 342 13 l330 5 3 153 c1 83 1 153 0 154 -2 1 -156 5 -343
8 l-340 5 -3 273 c-1 149 -1 273 0 274 2 1 170 5 373 8 l370 5 3 149 c2 113
-1 151 -10 158 -22 13 -1122 10 -1136 -4z"/>
<path d="M5611 3681 c-12 -8 -13 -168 -8 -1078 3 -587 8 -1076 12 -1085 4 -9
13 -19 21 -22 8 -3 261 -6 561 -6 434 -1 549 2 560 12 14 14 20 248 8 281 -7
16 -33 17 -365 17 -320 0 -359 2 -371 17 -12 13 -15 177 -19 942 l-5 926 -190
2 c-104 2 -196 -1 -204 -6z"/>
<path d="M7082 3682 c-19 -13 -13 -2152 7 -2175 12 -15 52 -17 395 -17 404 1
488 8 580 49 125 55 214 172 272 357 16 49 19 92 18 254 l0 195 -31 78 c-51
125 -103 181 -204 216 -29 11 -55 23 -56 28 -2 4 17 18 41 31 102 54 174 165
195 299 23 146 8 331 -33 408 -9 17 -16 35 -16 41 0 10 -60 94 -85 119 -31 32
-109 75 -170 95 -67 21 -89 23 -485 27 -228 2 -421 0 -428 -5z m665 -325 c70
-15 96 -34 125 -91 29 -57 36 -218 14 -304 -20 -79 -39 -106 -96 -134 -40 -20
-60 -23 -175 -23 l-130 0 -3 274 c-2 213 1 276 10 283 20 12 186 9 255 -5z
m-21 -888 c166 -23 217 -99 217 -324 0 -205 -47 -298 -168 -329 -67 -18 -246
-21 -276 -6 -18 10 -19 25 -19 330 0 293 1 320 18 329 23 14 131 14 228 0z"/>
<path d="M9542 3673 c-5 -10 -7 -499 -5 -1088 2 -995 4 -1071 20 -1082 12 -9
66 -13 183 -13 149 0 169 2 183 18 30 33 22 575 -18 1262 -9 146 -18 276 -20
290 -3 14 -1 32 4 39 8 12 11 8 16 -15 3 -16 20 -74 37 -129 17 -55 37 -122
45 -150 8 -27 18 -59 23 -70 4 -11 32 -90 63 -175 68 -193 140 -377 177 -455
5 -11 54 -130 109 -265 127 -313 121 -301 145 -327 19 -22 25 -23 207 -23 159
0 189 2 200 16 11 13 14 217 17 1088 4 944 3 1073 -11 1084 -11 9 -64 12 -203
10 l-189 -3 0 -425 c1 -234 6 -501 13 -595 25 -353 33 -518 27 -543 -11 -43
-14 -34 -101 243 -36 117 -136 400 -154 440 -6 11 -21 51 -36 90 -14 38 -33
87 -43 110 -10 22 -48 117 -86 210 -37 94 -71 179 -76 190 -5 11 -31 76 -58
144 -27 68 -55 127 -63 132 -7 5 -99 9 -205 9 -173 0 -193 -2 -201 -17z"/>
<path d="M5767 983 c-4 -3 -7 -12 -7 -20 0 -15 26 -18 34 -4 7 11 -18 33 -27
24z"/>
</g>
</g>
</svg>
